<svg id="圖層_1" data-name="圖層 1" xmlns="http://www.w3.org/2000/svg" viewBox="0 0 1023.23 931.94"><defs><style>.cls-1{fill:#fff;}</style></defs><path class="cls-1" d="M58,998.89a53.69,53.69,0,0,1,0-96.5q14-7,31.8-7,18.16,0,31.41,7.8A43.28,43.28,0,0,1,140,924.81l-29,14.82q-7.3-14.42-21.33-14.42a22.46,22.46,0,0,0-16.69,6.71q-6.61,6.72-6.62,18.57,0,12.06,6.62,18.87a22.28,22.28,0,0,0,16.69,6.81q14,0,21.33-14.42l29,14.82a43.2,43.2,0,0,1-18.76,21.63q-13.25,7.8-31.41,7.8Q72,1006,58,998.89Z" transform="translate(-28.34 -74.06)"/><path class="cls-1" d="M154.77,857.65H192.3v146.57H154.77Z" transform="translate(-28.34 -74.06)"/><path class="cls-1" d="M254.8,897.15a18.9,18.9,0,0,1-1.86,2q-6.33,5.83-16.59,5.83t-16.59-5.73a21.26,21.26,0,0,1-2-2.05h-.19v107.07h37.53V897.15Zm3.57-33.35a21.76,21.76,0,1,1-21.76-21.75A21.76,21.76,0,0,1,258.37,863.8Z" transform="translate(-28.34 -74.06)"/><path class="cls-1" d="M303.31,998.89a53.69,53.69,0,0,1,0-96.5q14-7,31.8-7,18.18,0,31.41,7.8a43.3,43.3,0,0,1,18.77,21.63l-29,14.82q-7.31-14.42-21.33-14.42a22.49,22.49,0,0,0-16.7,6.71q-6.62,6.72-6.61,18.57,0,12.06,6.61,18.87a22.3,22.3,0,0,0,16.7,6.81q14,0,21.33-14.42l29,14.82a43.22,43.22,0,0,1-18.77,21.63q-13.23,7.8-31.41,7.8Q317.33,1006,303.31,998.89Z" transform="translate(-28.34 -74.06)"/><path class="cls-1" d="M448.7,966.69,437.63,978v26.27H400.1V857.65h37.53v76.84L476,897.16H520.4L476,943l48.2,61.23H478.72Z" transform="translate(-28.34 -74.06)"/><path class="cls-1" d="M645.64,857.65v146.57H609.89V993.56Q599.42,1006,578.48,1006a53.15,53.15,0,0,1-26.67-6.82,49.21,49.21,0,0,1-19.06-19.45q-7-12.65-7-29.24t7-29.13a48.65,48.65,0,0,1,19.06-19.26,53.8,53.8,0,0,1,26.67-6.72q19.15,0,29.63,11.06V857.65ZM602.38,969.36q6.32-6.83,6.32-18.87,0-11.85-6.22-18.57t-16.1-6.71a21.28,21.28,0,0,0-16.2,6.71q-6.31,6.72-6.32,18.57,0,12.06,6.32,18.87a21.12,21.12,0,0,0,16.2,6.81A20.9,20.9,0,0,0,602.38,969.36Z" transform="translate(-28.34 -74.06)"/><path class="cls-1" d="M721.4,899a56.66,56.66,0,0,1,21-3.65v33.78a75.31,75.31,0,0,0-8.49-.59q-12,0-18.86,6.51t-6.82,20v49.18H670.73V897.16h35.75V910A35,35,0,0,1,721.4,899Z" transform="translate(-28.34 -74.06)"/><path class="cls-1" d="M796,897.15a17.78,17.78,0,0,1-1.85,2q-6.33,5.83-16.6,5.83T761,899.2a21,21,0,0,1-2-2.05h-.2v107.07h37.53V897.15Z" transform="translate(-28.34 -74.06)"/><path class="cls-1" d="M934.44,897.16l-44.25,107.06H851.47L807.42,897.16h38.52l25.68,65.38,27.06-65.38Z" transform="translate(-28.34 -74.06)"/><path class="cls-1" d="M1051,960.17H973.15a21.75,21.75,0,0,0,9.19,12.74q6.81,4.46,17.09,4.45a36.94,36.94,0,0,0,13.33-2.18,39,39,0,0,0,11.36-7.11l19.75,20.55q-15.6,17.39-45.63,17.38-18.76,0-33-7.11a54.06,54.06,0,0,1-1.18-96.4,67.4,67.4,0,0,1,59.26-.49A50.35,50.35,0,0,1,1044,921.16q7.6,12.54,7.6,29.73C1051.57,951.15,1051.38,954.25,1051,960.17ZM980,927a22.25,22.25,0,0,0-7.41,13.43h43.85A22.29,22.29,0,0,0,1009,927a21.66,21.66,0,0,0-14.52-4.94Q985.79,922.05,980,927Z" transform="translate(-28.34 -74.06)"/><path class="cls-1" d="M777.9,840.2a24,24,0,1,0,24,24A24,24,0,0,0,777.9,840.2Zm1.43,41.39a17.09,17.09,0,0,1-13-4.61,17.33,17.33,0,0,1-5.49-12.61A21.14,21.14,0,0,1,761,862a3.49,3.49,0,0,1,3.73-3c.86.06,2,.14,3.19.21A1.23,1.23,0,0,1,769,861a9.81,9.81,0,1,0,18.93,3.63,9.44,9.44,0,0,0-.7-3.58,1.23,1.23,0,0,1,1.06-1.7c1.06-.07,2.11-.14,3.12-.24a3.48,3.48,0,0,1,3.79,2.95,15.34,15.34,0,0,1,.1,4.17A17.36,17.36,0,0,1,779.33,881.59Z" transform="translate(-28.34 -74.06)"/><path class="cls-1" d="M540.73,74.06c-193.33,0-350.5,157.17-350.5,350.5S347.4,774.69,540.36,774.69,890.5,617.52,890.5,424.56,733.69,74.06,540.73,74.06Zm0,656.73c-169,0-306.6-137.62-306.6-306.6S371.75,118,540.73,118,847,255.58,847,424.56,709.71,730.79,540.73,730.79Z" transform="translate(-28.34 -74.06)"/><path class="cls-1" d="M772.8,389.88a71.78,71.78,0,0,0-78.22-61.62c-26.56,2.58-54.6,4.06-83,5.17a115.82,115.82,0,0,0-70.84-24.35,114.19,114.19,0,0,0-70.1,24c-31.73-1.48-64.57-3.32-84.49-4.8-38.37-3.32-72.31,23.62-77.48,61.25A234.65,234.65,0,0,0,381,593.17c43.9,41,100,63.09,159.75,63.09,5.54,0,11.07-.37,17-.74,112.16-7.75,205.14-97.77,216.58-209.19C775.38,427.51,775.38,408.32,772.8,389.88ZM540.73,352.61a71.95,71.95,0,1,1-71.94,71.95A72,72,0,0,1,540.73,352.61ZM742.55,443c-10,96.66-90.4,174.51-187.43,181.15C497.93,628.22,443.7,609,402,569.92a203.81,203.81,0,0,1-64.57-148.31,239.86,239.86,0,0,1,1.84-28c3-21,22.14-36.16,43.91-34.68,15.13,1.1,36.53,2.58,59.77,3.68a113.78,113.78,0,0,0-18.08,61.62,115.48,115.48,0,0,0,231,0,114.16,114.16,0,0,0-17.71-60.88c19.93-1.1,39.85-2.21,58.67-4.06,22.13-1.84,41.69,13.29,44.64,34.69A182.55,182.55,0,0,1,742.55,443Z" transform="translate(-28.34 -74.06)"/></svg>